<svg width="512" height="512" viewBox="0 0 512 512" fill="none" xmlns="http://www.w3.org/2000/svg">
<path d="M230.587 97.7885V140.531H277.021V97.7885H230.587ZM120.807 149.142V191.886H167.24V149.142H120.807ZM175.646 149.142V191.886H222.078V149.142H175.646ZM230.587 149.142V191.886H277.021V149.142H230.587ZM381.469 160.213L374.91 170.155C366.505 182.967 362.303 200.802 363.635 217.92C364.25 223.865 366.196 234.73 372.244 244.058C366.196 247.441 354.204 251.951 338.214 251.644H32.7577L32.143 255.231C29.273 272.349 29.2725 325.958 63.6104 367.061C89.7483 398.323 128.802 414.212 179.848 414.212C290.55 414.212 372.348 362.654 410.786 268.763C425.854 269.07 458.346 268.865 475.054 236.577C475.464 235.859 476.488 233.912 479.358 227.762L481 224.379L471.671 218.024C461.421 211.362 438.154 208.797 420.113 212.282C417.756 195.165 408.326 180.303 391.311 166.875L381.469 160.213ZM65.8666 200.495V243.239H112.299V200.495H65.8666ZM120.807 200.495V243.239H167.24V200.495H120.807ZM175.646 200.495V243.239H222.078V200.495H175.646ZM230.587 200.495V243.239H277.021V200.495H230.587ZM285.527 200.495V243.239H331.962V200.495H285.527Z" fill="#1D63ED"/>
</svg>
