<svg width="512" height="512" viewBox="0 0 512 512" fill="none" xmlns="http://www.w3.org/2000/svg">
<path fill-rule="evenodd" clip-rule="evenodd" d="M132.512 164.945C134.899 162.961 137.045 162.278 137.045 162.278C136.795 166.854 137.371 170.743 138.411 174.023C139.137 176.382 140.185 178.631 141.524 180.704C145.482 186.798 150.579 189.184 150.579 189.184C151.187 177.462 157.199 173.502 157.199 173.502C156.202 180.346 156.267 197.881 162.254 211.795C169.238 227.998 162.026 227.271 171.743 247.594C183.976 273.145 218.647 272.831 218.647 272.831C198.768 278.556 176.807 271.626 166.049 253.829C161.809 246.791 160.095 241.012 159.325 235.979C154.423 234.331 146.41 227.39 145.922 226.957C146.311 227.044 152.678 228.496 158.663 228.519C158.458 224.147 158.35 220.27 156.776 216.363C150.986 215.659 144.717 211.797 144.717 211.797C144.078 223.033 138.314 228.628 131.791 230.573L130.137 239.081C136.437 247.529 152.325 259.968 152.325 259.968C152.325 259.968 138.976 255.804 128.793 245.935C127.552 252.29 126.312 258.645 125.072 265C131.569 270.249 138.345 274.783 144.825 278.773C163.89 290.518 189.924 295.858 196.667 295.533C203.152 294.382 209.843 292.963 216.49 291.379C209.669 289.807 193.446 285.736 184.401 280.763C191.082 281.098 216.989 284.525 241.814 284.677C265.021 277.975 283.154 271.338 283.154 271.338C283.154 271.338 273.603 257.988 280.377 242.394C287.152 226.799 301.666 223.089 308.639 222.098C314.55 217.641 322.445 200.842 323.399 185.508C324.386 169.511 313.183 163.991 306.764 155.684C300.344 147.377 296.189 136.522 287.839 125.807C295.648 129.656 300.799 136.609 300.799 136.609C301.905 133.692 307.696 117.272 302.609 107.327C297.002 96.3957 284.337 91.4716 284.337 91.4716C285.757 89.8437 289.411 88.1755 289.411 88.1755C271.07 78.9569 254.285 90.9735 254.285 90.9735C253.808 88.2602 254.144 85.345 254.144 85.345C244.796 93.2071 242.15 107.848 242.15 107.848C261.942 107.718 268.99 115.375 268.99 115.375C247.703 111.708 223.801 113.661 205.277 123.052C186.753 132.443 170.161 151.976 170.161 151.976C172.407 140.729 178.296 135.665 178.296 135.665C168.492 127.986 158.081 129.245 158.081 129.245C160.044 130.666 162.256 134.352 162.256 134.352C158.014 134.6 153.854 135.622 149.98 137.367C148.26 138.135 146.606 139.042 145.034 140.081C140.761 142.868 137.292 146.426 134.927 150.188C131.641 155.372 130.438 160.933 132.009 165.393C132.175 165.238 132.349 165.086 132.512 164.945ZM232.327 159.165C232.327 159.165 235.19 149.448 245.406 145.067C255.622 140.685 276.044 144.178 287.637 156.714C299.23 169.251 295.835 182.59 286.345 187.698C271.9 195.463 266.64 186.95 254.712 182.883C242.783 178.817 228.186 175.563 232.327 159.165ZM240.731 192.275C247.748 191.288 250.112 195.756 247.477 201.861C244.842 207.966 241.024 210.869 237.771 211.643C231.296 213.163 223.553 207.555 223.357 203.217C223.161 198.879 233.716 193.251 240.731 192.275ZM244.559 217.684C249.504 220.667 260.501 218.314 261.217 204.757C261.217 204.757 267.55 213.042 260.555 220.232C262.497 222.954 265.609 237.726 254.559 243.473C242.423 249.795 234.018 237.085 232.207 233.54C223.997 232.704 222.501 225.319 222.501 225.319C237.814 232.704 244.56 217.684 244.56 217.684H244.559ZM173.558 198.337C175.186 179.445 189.24 161.595 205.887 165.597C222.013 169.479 219.172 184.304 215.712 193.869C212.252 203.434 213.413 208.639 210.746 215.873C208.078 223.106 201.169 228.757 192.027 228.192C180.279 227.466 172.117 216.589 173.559 198.337H173.558Z" fill="#797979"/>
<path fill-rule="evenodd" clip-rule="evenodd" d="M330.723 217.315C330.723 217.315 327.013 225.964 311.646 228.974C294.48 232.338 282.733 244.731 290.64 255.455C298.73 266.431 318.945 263.535 318.945 263.535C300.78 273.501 287.028 261.985 287.028 261.985C293.46 277.505 316.983 282.513 335.961 266.788C354.938 251.063 356.609 231.141 356.609 231.141C354.343 236.217 349.615 241.693 349.322 242.03C349.581 241.4 355.275 227.454 354.484 216.859C353.67 206.014 345.232 197.707 330.343 191.016C329.681 206.22 318.63 220.948 318.63 220.948C323.533 220.212 330.723 217.315 330.723 217.315Z" fill="#797979"/>
<path fill-rule="evenodd" clip-rule="evenodd" d="M228.76 205.343C233.987 209.485 237.945 207.761 241.405 203.89C244.865 200.018 243.779 196.776 238.672 198.293C233.564 199.81 230.983 201.332 228.64 202.762C228.087 203.099 226.872 203.846 228.76 205.343Z" fill="#797979"/>
<path fill-rule="evenodd" clip-rule="evenodd" d="M304.631 309.316C315.572 315.184 333.119 329.597 338.661 358.085C338.087 356.871 319.885 318.622 279.62 317.158C235.036 330.116 188.437 338.89 180.205 338.695C180.064 345.647 193.436 427.257 199.043 454.824C229.809 470.961 275.232 464.248 295.019 459.368C329.322 449.673 352.41 409.731 352.41 409.731C350.707 429.751 336.673 445.725 336.239 446.225C356.485 436.735 383.945 412.659 387.968 403.723C376.053 365.266 364.139 326.81 352.224 288.353C340.776 295.713 323.685 302.849 304.631 309.316Z" fill="#797979"/>
<path fill-rule="evenodd" clip-rule="evenodd" d="M117.08 229.353C115.126 228.356 113.588 227.044 112.687 225.536C112.687 225.536 114.673 226.208 117.536 226.534C119.163 226.722 120.804 226.754 122.437 226.631C124.399 226.469 126.46 226.035 128.434 225.135C130.433 224.244 132.205 222.913 133.617 221.242C137.684 216.437 138.455 210.223 136.926 204.258C136.271 201.727 135.259 199.302 133.921 197.057C132.431 194.525 130.563 192.236 128.38 190.269C127.034 189.04 125.562 187.956 123.988 187.037C122.249 186.013 120.382 185.225 118.435 184.694C103.338 180.627 85.3147 199.291 94.6669 224.907C98.7987 236.24 105.37 245.794 113.06 253.939L117.08 229.353Z" fill="#797979"/>
<path fill-rule="evenodd" clip-rule="evenodd" d="M361.804 213.157C361.804 213.157 371.749 238.73 345.85 267.067C329.041 284.961 302.211 289.299 288.111 277.088C288.111 277.088 245.274 293.094 209.751 300.003C174.244 306.911 148.369 308.462 154.387 291.826C151.71 290.687 148.489 288.984 145.322 287.185C127.515 293.409 123.112 307.518 127.74 317.691C118.456 312.627 113.879 295.558 136.112 281.686C133.649 280.147 132.033 279.082 132.033 279.082C132.033 279.082 112.469 287.172 103.88 301.357C95.2911 315.542 102.07 329.64 120.333 331.993C138.595 334.346 189.829 333.085 263.305 313.563C336.781 294.042 392.892 259.609 400.489 237.921C408.086 216.233 376.987 211.264 361.804 213.157Z" fill="#797979"/>
<path fill-rule="evenodd" clip-rule="evenodd" d="M241.024 172.852C241.316 173.517 244.187 175.97 244.749 176.606C245.31 177.242 246.537 177.641 246.537 177.641C248.631 178.289 250.724 178.937 252.818 179.584C254.911 180.232 259.596 181.031 259.823 181.167C260.049 181.302 265.482 182.64 265.482 182.64C265.482 182.64 275.999 182.341 276.179 182.341C276.359 182.341 279.75 181.302 279.885 181.211C280.019 181.12 283.454 177.955 283.454 177.955C283.921 175.454 284.388 172.954 284.855 170.453C284.855 168.149 284.855 165.844 284.855 163.54C284.855 161.235 281.014 155.452 280.969 155.271C280.923 155.09 279.271 152.775 279.271 152.775C278.271 151.981 277.27 151.187 276.269 150.393L268.768 147.821C268.768 147.821 265.211 146.821 265.078 146.79C264.944 146.76 260.36 146.421 260.224 146.543C260.088 146.664 255.34 146.543 255.34 146.543C253.805 146.478 252.269 146.412 250.734 146.347C249.199 146.282 245.377 147.741 245.199 147.821C245.021 147.902 240.705 151.257 240.614 151.392C240.522 151.527 238.806 156.117 238.806 156.117C238.806 156.117 238.084 159.842 238.038 159.978C237.992 160.114 238.988 167.931 238.988 167.931C238.988 167.931 240.731 172.187 241.024 172.852Z" fill="#797979"/>
<path fill-rule="evenodd" clip-rule="evenodd" d="M184.675 215.554C186.618 216.277 188.561 217.001 190.504 217.724C193.419 217.724 196.333 217.724 199.248 217.724C199.452 217.724 204.196 214.81 204.196 214.81C205.619 213.84 207.043 212.87 208.466 211.899C209.89 210.929 210.771 207.015 210.839 206.473C210.907 205.93 211.449 199.73 211.449 199.73C211.449 199.73 212.946 194.933 213.082 194.543C213.219 194.153 213.686 191.629 214.005 191.287C214.324 190.945 215.047 188.031 215.047 188.031L215.985 184.505C215.94 183.229 215.895 181.953 215.85 180.677C215.895 179.355 215.94 178.033 215.985 176.711C215.172 175.469 214.359 174.226 213.546 172.983C212.641 171.947 211.737 170.912 210.832 169.876C209.093 169.623 207.353 169.369 205.613 169.116C205.387 172.008 205.161 174.9 204.935 177.792C201.456 177.182 197.977 176.572 194.497 175.962C189.516 178.386 184.535 180.81 179.554 183.234L178.406 185.59C177.424 189.002 176.441 192.413 175.458 195.825C175.977 199.372 176.497 202.919 177.016 206.466C177.536 210.013 181.287 213.108 181.49 213.244C181.693 213.38 184.675 215.554 184.675 215.554Z" fill="#797979"/>
<path fill-rule="evenodd" clip-rule="evenodd" d="M389.033 391.85C387.112 386.496 385.192 381.142 383.272 375.788C381.08 368.648 378.889 361.508 376.697 354.368L368.495 329.829C366.62 323.073 364.745 316.317 362.87 309.562C359.955 300.909 357.04 292.256 354.126 283.603L301.074 306.694C291.162 309.466 281.249 312.237 271.337 315.009C262.661 317.569 253.985 320.13 245.309 322.691L218.564 328.201C208.925 330.249 199.285 332.298 189.646 334.346C186.603 335.22 183.561 336.094 180.518 336.968C205.461 348.265 232.397 328.11 266.373 339.681C300.35 351.253 322.585 376.554 323.308 394.629C323.308 394.629 332.255 384.506 332.798 373.574C342.648 415.778 319.513 452.832 242.695 466.929C242.695 466.929 273.695 469.189 290.142 465.393C306.589 461.598 320.869 456.627 320.869 456.627C327.12 454.014 333.371 451.4 339.621 448.787C344.185 446.528 348.749 444.269 353.313 442.009C358.215 438.168 363.118 434.327 368.021 430.486C373.398 425.403 378.776 420.319 384.153 415.236C386.751 411.576 389.349 407.915 391.947 404.255L389.033 391.85Z" fill="#4B4B4B"/>
<path fill-rule="evenodd" clip-rule="evenodd" d="M226.428 292.077C228.733 290.947 231.037 289.818 233.342 288.688C226.428 270.59 219.514 252.493 212.6 234.396L160.23 222.513C160.23 222.513 151.192 220.659 142.647 215.554L139.534 208.165C130.943 192.893 114.997 191.017 105.238 202.314C95.4788 213.611 99.8114 232.769 116.354 248.494C132.896 264.219 170.397 290.156 214.5 294.133L226.428 292.077Z" fill="#4B4B4B"/>
<path fill-rule="evenodd" clip-rule="evenodd" d="M252.955 177.233C261.854 180.757 275.023 188.782 283.699 183.761C292.375 178.741 292.484 167.386 280.836 157.485C278.71 155.684 267.161 146.824 254.755 147.908C242.349 148.992 235.017 158.754 236.956 166.258C238.895 173.761 244.69 173.958 252.955 177.233ZM250.102 165.271C250.557 159.762 255.687 155.674 261.576 156.154C267.465 156.635 271.869 161.472 271.423 166.977C271.391 167.456 271.318 167.931 271.206 168.398C269.677 165.101 266.293 162.646 262.198 162.313C256.829 161.879 252.08 165.231 250.962 170.003C250.273 168.526 249.977 166.896 250.102 165.271Z" fill="#4B4B4B"/>
<path fill-rule="evenodd" clip-rule="evenodd" d="M192.397 223.616C205.486 223.215 207.178 210.537 209.207 200.506C211.235 190.474 218.902 179.923 209.207 172.374C198.849 164.306 180.489 176.875 178.645 194.877C177.648 204.594 179.318 224.028 192.397 223.616ZM189.263 191.895C191.898 186.614 198.047 184.337 202.992 186.794C204.449 187.525 205.693 188.62 206.604 189.972C201.937 188.464 196.619 190.795 194.209 195.615C192.376 199.291 192.722 203.456 194.761 206.468C194.302 206.324 193.856 206.143 193.427 205.926C188.481 203.456 186.617 197.177 189.263 191.895Z" fill="#4B4B4B"/>
<path fill-rule="evenodd" clip-rule="evenodd" d="M233.025 208.273C236.281 209.493 236.573 210.036 238.787 208.273C241.001 206.511 244.119 203.461 244.119 203.461C244.526 202.595 244.932 201.73 245.339 200.864C245.339 200.261 245.339 199.658 245.339 199.056C245.339 198.966 244.345 196.503 244.345 196.503C244.345 196.503 243.151 195.689 243.079 195.689C243.008 195.689 241.362 195.645 240.888 195.78C240.414 195.916 239.328 195.983 238.628 196.323C237.928 196.663 232.754 199.327 232.754 199.327C232.754 199.327 229.769 207.058 233.025 208.273Z" fill="#4B4B4B"/>
<path fill-rule="evenodd" clip-rule="evenodd" d="M143.6 172.512C144.244 170.208 148.074 166.797 148.074 166.797C146.177 178.094 152.548 184.781 152.548 184.781C166.51 186.769 172.385 182.432 172.385 182.432C172.385 182.432 199.409 145.288 176.994 139.323C154.579 133.358 143.939 150.285 143.939 150.285C146.956 149.099 152.548 149.268 152.548 149.268C141.161 157.465 143.6 172.512 143.6 172.512Z" fill="#4B4B4B"/>
<path fill-rule="evenodd" clip-rule="evenodd" d="M288.062 137.245C290.804 136.281 293.545 135.317 296.286 134.352C304.328 115.555 291.293 107.24 291.293 107.24C294.015 107.155 296.74 107.245 299.45 107.511C287.14 92.5092 268.813 98.1571 268.813 98.1571C270.348 94.7688 274.144 91.3349 274.144 91.3349C259.504 91.6963 248.524 101.954 247.079 109.861L253.179 121.882L288.062 137.245Z" fill="#4B4B4B"/>
<path fill-rule="evenodd" clip-rule="evenodd" d="M327.251 220.4C334.91 216.231 332.392 206.561 326.879 201.949C326.879 201.949 318.202 216.363 316.711 220.942C315.221 225.521 319.592 224.568 327.251 220.4Z" fill="#4B4B4B"/>
<path fill-rule="evenodd" clip-rule="evenodd" d="M286.233 295.941C341.156 282.927 385.666 250.754 389.1 236.384C392.534 222.015 369.398 222.105 369.398 222.105C367.501 230.148 361.041 237.175 361.041 237.175C361.041 237.175 354.955 246.588 353.54 249.615C354.79 246.938 356.04 244.261 357.29 241.584C357.818 239.731 358.345 237.879 358.873 236.026C359.279 232.833 359.686 229.64 360.093 226.447C359.776 223.389 359.46 220.332 359.143 217.274C358.119 214.231 357.095 211.189 356.072 208.146C353.917 204.878 351.763 201.609 349.609 198.341C347.771 197.121 345.934 195.901 344.096 194.681C343.268 194.967 342.439 195.254 341.611 195.54C340.783 195.827 354.805 213.117 345.182 235.35C345.182 235.35 346.493 226.267 344.503 220.889C344.503 220.889 339.038 243.348 319.426 253.65C299.814 263.953 285.485 245.407 298.82 231.87C298.82 231.87 291.228 232.909 289.974 235.789C288.719 238.67 285.173 239.824 284.089 244.884C283.433 248.003 283.16 251.189 283.274 254.373C282.965 256.896 282.955 259.446 283.245 261.97C283.727 266.127 287.703 270.827 287.703 270.827C288.23 271.257 288.757 271.688 289.284 272.118C286.136 273.375 282.989 274.631 279.841 275.888C269.81 279.433 259.778 282.978 249.747 286.524C240.123 288.828 230.5 291.133 220.877 293.437C211.501 295.561 202.124 297.685 192.748 299.809C187.009 299.899 181.27 299.989 175.532 300.079C172.007 299.424 168.483 298.769 164.958 298.114C163.603 295.742 162.247 293.369 160.891 290.997C155.593 288.32 150.294 285.643 144.996 282.966C142.952 283.497 140.907 284.028 138.862 284.559C135.94 286.368 133.019 288.177 130.097 289.986C127.176 291.795 121.511 301.733 123.048 308.328C124.63 315.195 126.662 331.192 189.02 321.07C251.378 310.949 286.233 295.941 286.233 295.941ZM346.223 260.604C347.196 259.327 348.169 258.051 349.142 256.774C347.853 258.687 346.441 260.748 345.049 262.864C341.595 268.114 336.558 269.87 332.833 272.725C335.037 271.034 337.241 269.344 339.446 267.653L346.223 260.604ZM323.314 276.465C326.275 275.372 329.236 274.279 332.197 273.186C329.049 275.383 324.857 276.788 318.993 278.03L323.314 276.465ZM293.901 275.878L306.284 279.623C303.039 279.623 300.372 279.218 298.203 278.52C294.218 277.238 289.315 272.147 289.28 272.112L293.901 275.878Z" fill="#4B4B4B"/>
<path fill-rule="evenodd" clip-rule="evenodd" d="M242.695 205.748C245.09 204.618 244.751 202.223 244.775 202.11C244.799 201.997 245.361 200.574 245.61 199.173C245.86 197.772 244.503 197.41 242.789 196.485C241.074 195.559 237.728 196.168 237.728 196.168C237.201 196.71 236.673 197.253 236.146 197.796C241.253 200.642 234.927 203.851 234.474 209.003C237.046 209.973 240.297 206.878 242.695 205.748Z" fill="#383838"/>
<path fill-rule="evenodd" clip-rule="evenodd" d="M170.78 201.455C170.78 201.726 172.542 213.791 172.747 216.064C172.951 218.336 176.338 224.84 176.545 225.381C176.752 225.923 189.219 234.057 190.305 234.532C191.39 235.006 198.98 235.141 199.184 235.006C199.388 234.87 209.215 229.037 209.418 228.838C209.621 228.639 214.909 213.723 214.909 213.723C213.937 208.662 212.965 203.601 211.994 198.54C208.673 198.609 200.359 213.927 192.36 214.603C184.362 215.279 180.115 207.554 177.811 197.071C177.807 197.072 170.78 201.184 170.78 201.455Z" fill="#383838"/>
<path fill-rule="evenodd" clip-rule="evenodd" d="M278.031 197.072C278.302 197.072 290.774 194.993 293.576 194.089C296.378 193.185 300.715 186.769 300.715 186.769C302.162 182.491 303.609 178.214 305.056 173.936C306.503 169.659 301.622 164.989 301.532 164.717C301.442 164.446 288.515 146.644 280.923 143.263C273.331 139.882 275.591 141.406 274.688 141.135C273.785 140.863 269.626 143.033 269.446 143.263C269.266 143.493 268.993 149.539 268.993 149.539C281.917 156.317 284.651 170.958 277.534 175.77C270.416 180.583 263.298 176.449 253.992 179.227C253.992 179.227 255.438 185.956 255.62 186.232C255.803 186.507 277.759 197.072 278.031 197.072Z" fill="#383838"/>
<path fill-rule="evenodd" clip-rule="evenodd" d="M155.304 160.381C153.859 164.939 154.039 171.971 155.326 176.952C155.326 176.952 155.394 179.291 155.394 179.494C155.394 179.697 173.085 171.767 173.085 171.767C176.542 167.158 179.999 162.549 183.455 157.94C186.912 153.331 184.879 148.586 174.102 145.265C163.325 141.944 157.378 148.609 157.378 148.609C158.915 148.518 161.084 149.061 161.084 149.061C152.679 154.687 151.504 163.182 151.504 163.182C152.277 162.007 155.304 160.381 155.304 160.381Z" fill="#383838"/>
<path fill-rule="evenodd" clip-rule="evenodd" d="M283.77 134.689C283.77 134.689 287.769 136.383 291.091 128.792C294.412 121.202 286.464 113.695 286.464 113.695C287.691 114.075 288.896 114.521 290.074 115.033C284.313 103.376 272.313 105.139 272.313 105.139C273.211 103.936 275.635 102.631 275.635 102.631C263.163 99.7168 255.527 110.72 255.527 110.72C255.338 112.384 255.15 114.048 254.961 115.712C257.221 118.92 259.48 122.129 261.739 125.337L283.77 134.689Z" fill="#383838"/>
<path fill-rule="evenodd" clip-rule="evenodd" d="M324.122 208.323C321.29 212.209 318.458 216.096 315.626 219.982C315.506 221.488 315.385 222.994 315.265 224.5C318.533 223.204 321.802 221.909 325.071 220.613C329.184 215.237 326.923 210.444 324.122 208.323Z" fill="#383838"/>
<path fill-rule="evenodd" clip-rule="evenodd" d="M291.057 261.813C289.61 261.022 288.163 260.231 286.716 259.441C285.959 259.836 285.203 260.231 284.446 260.627C284.446 261.666 284.446 262.706 284.446 263.745C284.446 263.847 285.801 266.964 285.801 266.964C287.212 268.885 288.622 270.805 290.033 272.726C292.372 274.036 294.71 275.347 297.049 276.657C300.121 277.357 303.194 278.058 306.266 278.758C308.311 278.961 310.356 279.165 312.401 279.368C314.445 279.571 320.432 277.979 320.569 277.877C320.705 277.775 327.347 275.675 327.481 275.504C327.616 275.334 331.842 274.07 339.528 271.223C347.214 268.376 353.085 262.006 355.163 258.978C362.709 255.092 371.815 243.275 359.613 239.954C359.613 239.954 356.992 238.462 357.877 233.719C358.761 228.975 355.821 225.043 352.973 234.329C350.125 243.615 339.937 253.691 339.937 253.691C341.203 251.071 341.722 242.186 341.722 242.186C336.029 250.524 325.025 265.208 310.204 265.119C305.55 264.649 300.896 264.178 296.241 263.708L291.057 261.813Z" fill="#383838"/>
<path fill-rule="evenodd" clip-rule="evenodd" d="M310.679 281.91C303.472 279.402 296.264 276.894 289.057 274.386C288.017 274.101 286.978 273.815 285.938 273.529C278.98 276.315 272.021 279.1 265.062 281.886C258.661 283.784 252.259 285.682 245.858 287.58C244.117 288.018 242.375 288.457 240.634 288.896C243.311 288.035 245.988 287.174 248.665 286.313C252.732 285.025 256.799 283.738 260.866 282.45L287.833 272.353C286.523 269.98 285.213 267.608 283.902 265.236C283.157 261.531 282.411 257.826 281.666 254.12C281.101 253.442 280.536 252.764 279.971 252.086C280.679 250.317 281.387 248.547 282.094 246.777C260.858 247.801 239.622 248.825 218.386 249.85C197.15 250.874 163.348 236.655 154.4 229.696C154.4 229.696 146.899 227.663 144.279 226.262C144.279 226.262 147.057 232.092 150.752 234.87C150.752 234.87 141.025 230.601 135.534 226.025C136.494 223.788 137.455 221.552 138.415 219.315C138.245 218.603 138.076 217.891 137.907 217.179C137.738 216.468 134.651 201.861 119.111 205.115C103.57 208.369 107.135 230.058 117.89 237.378C117.89 237.378 123.449 236.655 130.226 243.252C137.004 249.849 140.517 252.527 140.517 252.527C142.641 253.871 144.764 255.216 146.888 256.56C155.276 262.22 170.916 270.048 183.388 274.589C183.388 274.589 172.158 275.335 164.839 274.155C164.839 274.155 187.748 283.193 205.551 285.542C223.355 287.892 230.901 291.055 230.901 291.055C232.006 290.874 233.111 290.693 234.216 290.512L228.099 292.06C222.119 293.642 216.14 295.224 210.161 296.806C204.633 297.755 199.105 298.704 193.577 299.653C187.221 300.21 180.864 300.767 174.508 301.324C169.477 297.498 164.446 293.673 159.416 289.847C155.725 289.153 152.035 288.46 148.345 287.766C139.805 293.281 134.88 307.604 152.773 313.477C170.667 319.351 236.73 311.129 289.869 284.016C289.869 284.011 306.067 285.502 310.679 281.91Z" fill="#383838"/>
<path fill-rule="evenodd" clip-rule="evenodd" d="M387.248 388.211C386.043 383.904 384.838 379.597 383.632 375.289L377.307 357.396C375.394 351.16 373.481 344.924 371.568 338.688C370.152 334.109 368.736 329.53 367.32 324.951L362.937 309.632C361.296 304.314 359.654 298.996 358.012 293.678C356.355 290.44 354.698 287.202 353.041 283.963C350.014 285.319 346.987 286.674 343.96 288.03C339.471 290.273 334.982 292.516 330.493 294.759C323.655 297.606 316.818 300.454 309.98 303.301C303.775 305.063 297.569 306.825 291.364 308.587C285.159 310.349 305.191 314.1 308.986 318.506C312.782 322.911 319.966 325.486 322.475 329.69C324.983 333.893 328.371 336.4 329.659 339.653C330.948 342.906 332.915 344.386 334.336 348.6C340.233 360.462 345.452 374.381 345.723 380.255C345.723 380.255 349.067 368.776 349.158 355.401C349.158 355.401 365.288 404.881 341.748 429.598C318.882 453.727 330.269 452.959 337.454 449.615C344.639 446.271 357.743 438.047 357.743 438.047C362.201 434.538 366.659 431.028 371.117 427.519C374.973 423.934 378.83 420.35 382.686 416.765C385.683 413.044 388.681 409.324 391.679 405.603C391.784 404.925 391.888 404.247 391.993 403.569L387.248 388.211Z" fill="#383838"/>
<path fill-rule="evenodd" clip-rule="evenodd" d="M237.002 408.998C231.032 362.094 192.673 343.251 177.49 343.861C183.455 381.238 189.419 418.616 195.384 455.994C195.731 456.415 196.077 456.837 196.424 457.259C203.955 459.879 211.486 462.5 219.018 465.12C267.457 451.925 247.033 393.635 241.52 386.675C242.514 400.049 237.002 408.998 237.002 408.998Z" fill="#A7A5A5"/>
<path fill-rule="evenodd" clip-rule="evenodd" d="M404.521 225.348C403.515 223.732 402.51 222.117 401.504 220.502C399.855 218.931 398.205 217.361 396.556 215.79C394.229 214.774 391.902 213.757 389.575 212.741C385.588 212.04 381.6 211.34 377.612 210.639C377.239 211.057 376.867 211.475 376.494 211.893C396.556 215.96 401.161 235.615 386.389 258.254C388.456 257.362 390.524 256.469 392.591 255.577C393.924 254.063 395.257 252.55 396.59 251.036C397.923 249.522 401.606 244.732 401.64 244.633C401.673 244.533 404.284 237.854 404.284 237.854C404.475 235.911 404.667 233.968 404.859 232.024L404.521 225.348Z" fill="#A7A5A5"/>
<path fill-rule="evenodd" clip-rule="evenodd" d="M116.354 323.867C101.171 311.575 109.576 296.075 128.826 278.453C128.826 278.453 119.384 282.204 107.092 291.83C94.7994 301.455 95.7946 309.723 95.7946 309.723C96.1108 313.232 96.427 316.742 96.7432 320.251C97.0594 323.76 101.126 328.023 101.85 328.747C102.573 329.471 111.834 333.522 111.834 333.522C115.314 334.083 118.794 334.644 122.273 335.204C125.753 335.765 137.319 337.69 137.5 337.69C140.814 337.69 144.127 337.69 147.441 337.69C154.792 336.198 162.142 334.707 169.493 333.215C176.843 331.723 131.536 336.158 116.354 323.867Z" fill="#A7A5A5"/>
<path fill-rule="evenodd" clip-rule="evenodd" d="M117.671 255.81C93.1725 232.359 90.5385 207.665 98.8661 196.626C107.194 185.587 118.885 184.776 125.753 186.946C124.721 185.59 123.689 184.235 122.657 182.879C120.523 182.359 118.388 181.839 116.254 181.32C114.074 181.32 111.893 181.32 109.713 181.32C107.544 182.007 105.375 182.694 103.206 183.382C100.698 185.494 98.1899 187.606 95.6818 189.719C94.2925 192.182 92.9033 194.645 91.5141 197.108C90.554 199.762 89.5938 202.417 88.6337 205.072C88.6337 207.162 88.6337 209.252 88.6337 211.342C89.0063 214.64 89.3789 217.938 89.7516 221.236C90.7682 224.061 91.7847 226.885 92.8013 229.709C94.5523 233.279 96.3033 236.849 98.0543 240.419C100.585 244.452 103.115 248.485 105.646 252.517C107.758 254.833 109.871 257.148 111.983 259.463C115.79 262.672 119.597 265.88 123.404 269.089L135.672 277.233C139.196 279.255 142.721 281.277 146.245 283.299C150.189 285.276 154.132 287.253 158.075 289.23C163.656 291.128 169.236 293.026 174.816 294.924L193.628 297.296C169.821 289.988 142.171 279.266 117.671 255.81Z" fill="#A7A5A5"/>
<path fill-rule="evenodd" clip-rule="evenodd" d="M132.936 169.914C133.267 169.176 133.599 168.438 133.93 167.7C134.548 170.23 135.165 172.761 135.783 175.292C136.928 177.521 138.073 179.75 139.218 181.979C140.363 184.209 143.736 187.493 143.872 187.763C144.007 188.033 151.825 192.915 151.825 192.915C151.885 191.198 151.945 189.48 152.005 187.763C148.548 185.933 138.449 175.156 140.076 159.838C140.076 159.838 137.094 159.883 134.65 161.419C134.65 161.419 136.076 140.723 161.175 133.991C160.777 133.468 160.379 132.944 159.981 132.421C159.583 131.897 170.481 130.738 179.473 136.748C180 136.401 180.527 136.055 181.055 135.708C180.754 134.834 180.453 133.961 180.152 133.087C178.314 131.897 176.476 130.707 174.638 129.517C172.093 128.719 169.547 127.921 167.002 127.123C164.954 126.927 162.905 126.731 160.857 126.535C158.989 126.746 157.121 126.957 155.253 127.168C154.771 127.589 154.29 128.011 153.808 128.433C153.989 129.096 154.17 129.759 154.35 130.421L151.237 133.495C149.068 134.128 146.899 134.761 144.73 135.393C142.169 137.487 139.609 139.58 137.048 141.674C135.768 143.708 134.488 145.741 133.207 147.775C132.198 149.945 131.189 152.116 130.181 154.286C129.714 156.952 129.247 159.618 128.78 162.284C129.156 164.346 129.533 166.408 129.909 168.47L132.936 169.914Z" fill="#A7A5A5"/>
<path fill-rule="evenodd" clip-rule="evenodd" d="M178.303 186.295C178.1 188.02 177.897 189.744 177.693 191.469C177.693 192.493 177.693 193.517 177.693 194.541C183.523 182.951 189.826 171.225 209.889 171.858C209.106 170.736 208.323 169.615 207.54 168.493C206.32 168.282 205.1 168.071 203.88 167.861C202.833 167.695 201.786 167.529 200.739 167.363C198.811 167.732 196.883 168.101 194.955 168.47C193.765 169.111 192.576 169.751 191.386 170.391C190.083 171.513 188.781 172.634 187.479 173.756C186.168 175.126 184.858 176.497 183.548 177.867C182.719 178.944 181.891 180.021 181.062 181.098L178.303 186.295Z" fill="#A7A5A5"/>
<path fill-rule="evenodd" clip-rule="evenodd" d="M253.179 146.915C253.179 146.915 249.541 145.366 243.711 148.553C237.881 151.739 235.409 157.94 235.409 157.94C234.799 159.361 234.189 160.782 233.578 162.203C233.94 163.933 234.302 165.664 234.664 167.395C235.026 169.126 237.071 171.767 237.206 171.903C237.34 172.04 240.663 174.508 240.663 174.508C242.493 175.446 244.323 176.384 246.153 177.321C247.893 177.502 249.632 177.683 251.372 177.864C236.912 170 237.002 154.213 253.179 146.915Z" fill="#A7A5A5"/>
<path fill-rule="evenodd" clip-rule="evenodd" d="M299.936 98.0899C299.936 98.0899 297.123 94.8708 297.021 94.7688C296.919 94.6668 291.802 90.3972 291.802 90.3972C292.819 89.7756 293.836 89.1541 294.852 88.5326C295.869 87.9111 292.344 86.362 292.242 86.2621C292.14 86.1623 287.87 83.755 287.87 83.755L280.788 82.2681H270.143C268.313 82.6183 266.482 82.9685 264.652 83.3187C262.834 83.6805 261.015 84.0423 259.196 84.404C257.378 84.7658 256.35 84.0307 256.35 83.7605C256.35 83.4902 256.112 81.5236 256.112 81.5236L253.811 82.1596C253.811 82.1596 249.947 84.1251 247.71 87.9552C245.474 91.7853 243.271 95.2073 243.271 95.2073C242.3 97.3649 241.328 99.5225 240.356 101.68C239.724 104.561 239.092 107.442 238.459 110.322C240.391 110.176 242.322 110.029 244.254 109.882C246.185 109.735 247.236 97.5462 252.93 91.5812C253.178 92.914 253.427 94.2468 253.675 95.5796C253.924 96.9123 267.706 82.3626 284.715 87.9889C283.563 89.3784 282.411 90.768 281.259 92.1576C280.106 93.5471 298.817 96.8483 304.873 111.398C304.922 109.832 304.971 108.265 305.02 106.699C304.15 104.97 303.28 103.241 302.41 101.513L299.936 98.0899Z" fill="#A7A5A5"/>
<path fill-rule="evenodd" clip-rule="evenodd" d="M338.943 208.188C336.639 208.685 337.082 219.529 329.77 226.353C326.374 229.523 325.555 229.352 324.404 231.82C322.479 235.951 326.742 240.971 334.672 231.82C342.603 222.67 341.247 207.691 338.943 208.188Z" fill="#A7A5A5"/>
<path fill-rule="evenodd" clip-rule="evenodd" d="M317.694 235.853C316.021 235.853 314.513 236.861 313.873 238.406C313.233 239.952 313.587 241.73 314.77 242.913C315.953 244.095 317.732 244.449 319.277 243.808C320.822 243.168 321.829 241.66 321.829 239.987C321.829 238.891 321.393 237.839 320.618 237.064C319.842 236.289 318.79 235.853 317.694 235.853Z" fill="#A7A5A5"/>
<path fill-rule="evenodd" clip-rule="evenodd" d="M298.525 138.073C297.114 136.178 295.703 134.284 294.292 132.389C293.749 131.652 293.24 130.968 292.785 130.351C288.512 125.168 274.186 115.732 261.465 113.14C257.897 112.46 254.329 111.781 250.761 111.102H239.441C239.441 111.102 223.846 112.331 223.651 112.391C223.456 112.451 207.927 117.413 207.721 117.541C207.515 117.669 194.978 125.198 194.978 125.198C196.898 128.86 198.817 132.522 200.737 136.183L213.055 143.256C213.055 143.256 220.462 156.401 220.646 156.942C220.829 157.484 225.158 173.578 225.158 174.294C225.158 175.011 222.273 188.934 221.359 192.134C220.445 195.333 216.663 223.009 213.28 230.058C209.897 237.107 195.104 249.719 188.055 252.832C181.006 255.945 182.502 265.26 182.589 265.39C182.676 265.521 189.735 269.241 189.735 269.241C192.309 270.159 194.883 271.077 197.457 271.996C199.565 272.024 201.672 272.053 203.78 272.081C215.872 273.773 236.606 272.798 254.247 268.708C258.332 266.156 262.417 263.604 266.501 261.052C268.367 256.371 270.232 251.69 272.097 247.008C273.095 241.673 274.093 236.337 275.091 231.002C277.213 225.356 279.335 219.709 281.457 214.062C283.579 208.416 289.319 202.133 289.732 201.048C290.144 199.964 296.64 183.425 296.64 183.425L299.218 154.55L298.525 138.073ZM232.068 209.25C231.937 209.185 230.885 208.633 230.734 208.546C230.583 208.459 229.236 207.808 228.933 207.298C228.631 206.788 227.643 205.628 227.544 205.52C227.445 205.411 225.777 204.023 225.777 204.023C225.777 204.023 226.016 202.266 226.059 202.168C226.103 202.071 227.544 200.509 227.544 200.509C227.624 200.191 227.704 199.873 227.784 199.555C227.881 199.555 230.646 198.883 230.734 198.817C230.822 198.751 235.943 196.182 235.943 196.182C237.18 195.998 238.416 195.814 239.652 195.629C240.455 195.55 241.258 195.47 242.06 195.391C242.433 195.492 242.805 195.593 243.177 195.695C243.347 195.857 243.516 196.019 243.686 196.182C244.102 196.54 244.517 196.897 244.933 197.255C244.874 197.512 244.874 197.78 244.933 198.037C245.042 198.471 244.933 199.556 244.933 199.556C244.967 199.931 244.981 200.307 244.977 200.684C244.966 201.053 244.196 202.854 244.119 202.982C244.042 203.111 242.765 204.816 242.7 205.054C242.634 205.293 241.377 206.54 241.105 206.811C240.834 207.083 239.414 208.102 239.272 208.232C239.13 208.362 236.941 209.154 236.941 209.154C236.941 209.154 234.469 209.457 234.36 209.457C234.251 209.457 232.187 209.301 232.068 209.25ZM257.64 235.885C256.924 238.098 254.18 239.551 254.115 239.648C254.05 239.744 249.744 241.589 249.647 241.622C249.549 241.654 245.981 241.622 245.915 241.622C245.849 241.622 240.46 239.583 240.46 239.583C240.46 239.583 237.273 236.97 237.205 236.84C237.136 236.71 234.624 230.972 234.624 230.972C235.065 230.296 235.506 229.62 235.947 228.944C238.307 227.509 240.668 226.074 243.028 224.639C243.639 224.086 244.25 223.533 244.86 222.98C248.917 222.731 252.973 222.481 257.029 222.232C261.085 221.982 258.385 225.625 258.752 227.958C259.12 230.29 258.356 233.681 257.64 235.882V235.885ZM292.223 176.651C291.898 179.09 290.596 181.032 288.515 182.8C286.434 184.568 282.366 187.181 278.397 187.853C274.428 188.525 268.538 187.084 263.3 184.112C258.051 181.119 252.455 179.047 252.412 178.862C252.412 178.862 243.736 176.737 241.524 175.794C239.312 174.851 236.73 171.228 235.012 168.604C233.294 165.98 233.473 163.864 234.156 160.741C234.839 157.617 239.437 151.936 239.437 151.936C241.23 150.457 243.023 148.979 244.816 147.5C247.043 147.066 249.27 146.632 251.497 146.198C253.908 146.002 256.319 145.807 258.731 145.612C260.252 145.865 261.774 146.118 263.296 146.371C265.75 146.946 268.205 147.52 270.659 148.095C273.114 148.669 277.307 151.435 277.437 151.479C277.568 151.522 283.489 155.86 283.489 155.86C283.489 155.86 286.612 159.211 286.699 159.428C286.786 159.645 290.679 165.306 290.549 165.447C290.419 165.588 292.349 171.227 292.394 171.455C292.439 171.683 292.537 174.207 292.223 176.647V176.651Z" fill="#C6CACD"/>
<path fill-rule="evenodd" clip-rule="evenodd" d="M145.566 75.282C145.261 75.7454 144.956 76.2088 144.651 76.6723C141.33 96.616 138.009 116.56 134.688 136.504C135.773 136.679 136.858 136.854 137.944 137.03C139.446 137.109 140.948 137.188 142.451 137.268C144.943 136.218 147.435 135.169 149.927 134.12C152.418 133.071 150.607 119.447 154.042 104.083C157.477 88.7193 159.193 77.7847 159.193 77.7847C159.193 77.7847 152.345 73.6551 145.566 75.282Z" fill="#C6CACD"/>
<path fill-rule="evenodd" clip-rule="evenodd" d="M131.974 171.024L129.593 173.575L126.656 184.555L136.597 191.604L139.037 183.788L133.84 170.728L131.974 171.024Z" fill="#C6CACD"/>
<path fill-rule="evenodd" clip-rule="evenodd" d="M116.489 246.588L113.472 269.641L115.71 271.947H121.098L129.728 229.878L120.285 229.2L116.489 246.588Z" fill="#C6CACD"/>
<path fill-rule="evenodd" clip-rule="evenodd" d="M326.02 176.647C324.483 169.418 320.869 166.164 320.869 166.164C320.869 166.164 315.985 160.832 312.193 156.584C308.401 152.336 305.506 147.458 305.506 147.458C305.506 147.458 301.12 141.571 297.125 136.199C296.908 136.457 296.691 136.715 296.474 136.974C277.405 120.164 256.89 120.616 256.89 120.616C269.452 128.84 268.006 139.685 268.006 139.685C288.703 149.806 291.05 163.057 291.05 163.057C291.05 163.057 289.469 163.092 290.372 164.763C291.275 166.434 291.276 170.231 292.27 173.62C293.264 177.01 291.05 177.009 290.326 180.398C289.603 183.788 288.068 182.476 286.035 184.692C284.002 186.907 280.116 186.633 275.822 187.854C271.529 189.075 262.039 184.329 262.039 184.329C266.557 188.848 267.465 201.771 261.508 205.589C261.508 205.589 261.61 206.708 261.881 208.334C262.153 209.96 260.424 213.791 259.277 217.112C258.129 220.433 258.022 220.569 258.022 220.569C258.022 220.569 258.383 226.398 259.152 230.193C259.92 233.989 258.339 237.198 258.339 237.198C268.37 252.833 254.267 268.71 254.267 268.71C264.935 266.242 274.477 262.633 280.3 257.804C280.209 257.261 280.119 256.719 280.028 256.176C282.589 249.127 285.15 242.078 287.711 235.029C289.701 233.824 291.69 232.618 293.68 231.413C295.337 230.751 296.993 230.089 298.65 229.426C301.18 228.553 303.711 227.679 306.241 226.805C308.314 225.979 310.237 224.819 311.935 223.371C314.648 221.022 315.459 219.573 317.72 215.147C319.98 210.721 322.329 207.736 323.865 202.585C325.401 197.434 325.493 195.445 326.035 190.474C326.578 185.503 327.556 183.877 326.02 176.647Z" fill="#A1A5A8"/>
<path fill-rule="evenodd" clip-rule="evenodd" d="M143.736 135.618C145.739 134.737 147.742 133.855 149.745 132.974C149.919 130.707 150.092 128.44 150.265 126.173C150.341 125.307 150.416 124.441 150.491 123.575C150.566 122.709 151.802 117.137 151.825 117.046C151.848 116.955 154.085 107.17 154.085 107.17C154.34 104.888 154.596 102.605 154.852 100.323C155.552 97.8081 156.253 95.2927 156.953 92.7773C157.292 90.1414 157.631 87.5055 157.97 84.8696C158.249 82.9342 158.528 80.9987 158.807 79.0632C158.904 78.1671 159.002 77.271 159.1 76.3749C157.074 75.9306 155.048 75.4864 153.022 75.0421C155.666 82.1596 145.092 124.773 143.736 135.618Z" fill="#A1A5A8"/>
<path fill-rule="evenodd" clip-rule="evenodd" d="M133.297 189.436L136.01 191.741L139.037 183.968L135.693 180.398L133.297 189.436Z" fill="#A1A5A8"/>
<path fill-rule="evenodd" clip-rule="evenodd" d="M125.503 243.207L129.595 230.285C127.011 230.14 124.428 229.995 121.844 229.851C124.08 231.825 125.843 235.751 125.503 243.207Z" fill="#A1A5A8"/>
<path fill-rule="evenodd" clip-rule="evenodd" d="M229.475 199.693C231.781 198.088 234.087 196.482 236.394 194.877C250.829 186.538 245.721 181.463 241.253 177.103C229.594 159.025 236.319 158.482 233.656 145.924C228.407 119.528 194.973 125.2 194.973 125.2C190.483 129.682 185.993 134.165 181.503 138.647C173.283 145.919 159.933 165.325 154.846 178.882C154.575 181.192 154.305 183.502 154.034 185.812C154.304 189.557 154.575 193.302 154.846 197.047C155.277 199.263 155.707 201.479 156.137 203.694C156.567 205.91 159.315 213.65 159.393 214.128C159.471 214.605 161.486 219.485 161.486 219.485C161.963 222.402 162.44 225.319 162.917 228.237C163.503 232.278 164.088 236.319 164.674 240.361C165.26 244.402 166.572 244.362 171.186 253.516C175.8 262.669 184.546 264.36 184.546 264.36C211.376 273.839 243.174 262.138 238.63 239.211C238.63 239.211 237.946 237.65 236.255 233.713C234.564 229.777 235.647 227.744 235.647 227.744C245.614 217.246 235.441 210.869 235.441 210.869C235.441 210.869 235.821 210.197 233.479 209.72C231.137 209.244 227.72 206.597 226.061 204.536C224.401 202.474 229.475 199.693 229.475 199.693ZM215.681 184.954C215.681 185.117 214.53 190.443 214.53 190.443C213.956 192.071 213.381 193.699 212.807 195.327C212.138 197.495 211.47 199.664 210.801 201.833C210.508 203.529 210.215 205.224 209.922 206.92C209.47 209.018 209.018 211.116 208.566 213.215C207.334 215.597 206.101 217.979 204.869 220.362C203.13 221.717 201.391 223.073 199.653 224.428C198.398 224.812 197.143 225.195 195.889 225.579C195.791 225.621 191.15 225.579 191.15 225.579C191.15 225.579 187.658 224.667 187.484 224.569C187.31 224.472 184.134 222.801 184.134 222.801C182.858 221.471 181.582 220.141 180.306 218.811C179.423 217.195 178.541 215.579 177.659 213.964C177.174 212.763 176.69 211.563 176.205 210.363C175.721 209.162 176.238 204.604 176.205 204.17C176.173 203.736 175.76 196.72 175.76 196.633C175.76 196.546 177.388 190.375 177.452 190.203C177.516 190.03 178.884 184.649 178.884 184.541C178.884 184.432 182.603 177.634 182.745 177.459C182.888 177.284 187.918 172.851 188.063 172.753C188.209 172.655 195.524 168.003 195.524 168.003C195.524 168.003 198.506 167.559 198.68 167.525C198.854 167.491 203.246 167.525 203.246 167.525C204.941 167.977 206.637 168.429 208.332 168.881C209.442 169.705 210.552 170.53 211.662 171.354C212.699 172.837 213.737 174.321 214.774 175.804C215.136 177.432 215.498 179.06 215.86 180.688C216.221 182.316 215.681 184.781 215.681 184.954Z" fill="#F6FBFD"/>
<path fill-rule="evenodd" clip-rule="evenodd" d="M144.097 76.1524C143.012 84.3462 141.927 92.5399 140.841 100.734C138.642 113.51 136.443 126.286 134.244 139.063C132.045 151.839 135.938 141.334 136.04 141.368C136.142 141.402 138.277 141.571 138.277 141.571C139.598 139.979 140.92 138.387 142.241 136.796C139.646 133.379 143.733 121.342 145.497 110.497C147.262 99.6527 152.004 79.9282 148.886 74.9802L144.097 76.1524Z" fill="#F6FBFD"/>
<path fill-rule="evenodd" clip-rule="evenodd" d="M128.52 173.293L127.299 183.629L131.762 186.633L134.337 176.919L132.959 170.377L128.52 173.293Z" fill="#F6FBFD"/>
<path fill-rule="evenodd" clip-rule="evenodd" d="M119.923 231.505L116.354 247.184C115.872 251.13 115.39 255.077 114.908 259.023C114.426 262.969 112.468 263.135 114.637 266.705C116.805 270.274 119.608 263.068 120.556 256.629C121.505 250.189 122.77 238.829 120.963 231.323L119.923 231.505Z" fill="#F6FBFD"/>
<path fill-rule="evenodd" clip-rule="evenodd" d="M199.067 350.457C190.325 350.5 183.244 349.872 178.527 348.624C178.838 351.126 179.148 353.628 179.459 356.129C179.47 356.205 179.481 356.281 179.492 356.357C181.032 366.013 182.572 375.669 184.112 385.324C199.868 386.886 215.496 386.852 230.625 385.584C223.04 368.329 210.606 356.91 199.067 350.457Z" fill="#DF6064"/>
<path fill-rule="evenodd" clip-rule="evenodd" d="M245.775 225.861C245.775 225.861 242.869 229.949 237.858 232.314C243.443 245.209 260.719 239.623 255.645 224.429C251.198 227.314 245.775 225.861 245.775 225.861Z" fill="#AA282A"/>
<path fill-rule="evenodd" clip-rule="evenodd" d="M145.276 110.464C145.211 110.898 145.135 111.332 145.048 111.766C146.067 111.907 147.449 112.439 148.295 112.916C148.838 110.227 149.392 107.445 149.923 104.7C148.991 104.333 147.599 103.998 146.546 103.832C146.091 106.243 145.591 108.5 145.276 110.464Z" fill="#AA282A"/>
<path fill-rule="evenodd" clip-rule="evenodd" d="M334.334 348.605C332.914 344.397 330.95 342.911 329.66 339.657C328.371 336.404 324.986 333.9 322.469 329.692C321.472 328.022 319.747 326.612 317.785 325.242C302.787 331.793 286.259 336.999 269.894 340.947C286.693 347.28 300.38 356.943 309.683 367.235C319.727 363.298 328.933 358.96 337.099 354.438C336.21 352.464 335.278 350.512 334.334 348.605Z" fill="#AA282A"/>
<path fill-rule="evenodd" clip-rule="evenodd" d="M358.735 299.548C348.194 309.699 333.856 318.245 317.785 325.239C319.747 326.606 321.475 328.016 322.469 329.689C324.986 333.897 328.369 336.401 329.66 339.654C330.952 342.907 332.916 344.394 334.334 348.601C335.278 350.511 336.21 352.463 337.099 354.437C350.265 347.148 360.709 339.373 367.541 331.998L358.735 299.548Z" fill="#771C1C"/>
<path fill-rule="evenodd" clip-rule="evenodd" d="M149.744 104.626C149.212 107.369 148.659 110.124 148.116 112.813C149.302 113.485 150.384 114.326 151.327 115.309C151.89 112.732 152.454 110.155 153.018 107.578C152.521 106.156 151.284 105.234 149.744 104.626Z" fill="#771C1C"/>
<path fill-rule="evenodd" clip-rule="evenodd" d="M251.845 241.309C251.845 241.309 255.417 240.232 257.336 237.04C259.255 233.848 258.783 233.627 259.262 230.911C259.742 228.194 257.336 225.517 257.336 225.517C251.304 229.991 248.253 236.09 251.845 241.309Z" fill="#771C1C"/>
<path fill-rule="evenodd" clip-rule="evenodd" d="M269.894 340.947C243.541 347.29 217.6 350.372 199.067 350.457C210.606 356.91 223.044 368.329 230.625 385.584C259.624 383.166 286.812 376.225 309.683 367.235C300.38 356.943 286.693 347.28 269.894 340.947Z" fill="#D63D3D"/>
<path fill-rule="evenodd" clip-rule="evenodd" d="M140.33 103.673L139.796 106.785C139.796 109.243 139.796 111.701 139.796 114.159C141.533 112.012 143.486 111.524 145.273 111.795C145.36 111.361 145.436 110.927 145.501 110.493C145.815 108.529 146.238 106.26 146.695 103.855C144.083 103.456 141.424 103.586 140.33 103.673Z" fill="#D63D3D"/>
<path fill-rule="evenodd" clip-rule="evenodd" d="M243.372 240.316C243.885 240.316 244.398 240.316 244.91 240.316C244.051 235.526 248.863 226.669 254.082 224.23C250.991 223.785 247.9 223.34 244.809 222.896C241.431 225.743 238.053 228.589 234.675 231.436C236.113 233.492 237.551 235.548 238.99 237.604L243.372 240.316Z" fill="#D63D3D"/>
<path fill-rule="evenodd" clip-rule="evenodd" d="M402.633 249.178C416.601 230.742 409.551 201.774 358.851 204.897C358.851 204.897 350.176 188.098 331.133 182.882C330.656 172.493 324.604 165.074 318.91 160.199C313.217 155.324 309.746 147.88 306.656 144.865C306.656 144.865 312.489 133.456 311.492 119.531C310.495 105.607 304.421 97.5483 298.523 92.3984C300.145 92.2573 301.768 92.1162 303.391 91.9752C296.288 83.3208 285.043 75.5869 260.912 80.3384C261.678 78.3573 262.445 76.3763 263.211 74.3952C249.861 76.1523 240.188 87.0934 234.494 108.058C222.294 107.472 195.865 117.048 183.165 130.019C177.255 125.388 163.015 121.712 152.366 124.336C155.405 108.766 158.444 93.1969 161.483 77.6273C158.425 71.8686 147.472 68.1492 141.995 75.7725C138.217 98.9009 134.44 122.029 130.663 145.158C129.695 146.453 128.804 147.804 127.995 149.203C123.494 156.99 124.522 164.636 126.639 169.809C126.057 173.366 125.475 176.923 124.893 180.479C114.157 175.813 96.8591 176.543 88.1831 196.085C79.7905 214.977 90.5708 242.957 111.316 263.648C110.998 265.602 110.68 267.555 110.362 269.509C110.73 273.455 118.067 278.162 123.114 273.781C123.592 274.139 124.08 274.486 124.568 274.834C124.568 274.834 105.98 284.919 95.5904 298.928C85.2007 312.936 88.2699 335.529 115.74 339.237C143.211 342.946 171.233 340.137 171.233 340.137C177.614 379.58 183.994 419.023 190.374 458.466C196.754 497.909 210.817 473.258 245.791 474.754C280.766 476.251 363.461 462.68 395.994 404.66L359.166 283.811C359.166 283.811 388.675 267.614 402.633 249.178ZM354.33 216.86C355.121 227.455 349.427 241.401 349.168 242.031C349.461 241.695 354.188 236.218 356.455 231.142C356.455 231.142 354.785 251.065 335.806 266.789C316.827 282.513 293.305 277.505 286.874 261.986C286.874 261.986 300.626 273.502 318.791 263.537C318.791 263.537 298.576 266.432 290.486 255.456C282.579 244.731 294.326 232.339 311.492 228.975C326.859 225.96 330.569 217.316 330.569 217.316C330.569 217.316 323.379 220.212 318.476 220.95C318.476 220.95 329.527 206.222 330.189 191.018C345.078 197.708 353.516 206.015 354.33 216.86ZM146.749 76.8969C146.749 76.8969 152.095 74.5971 156.842 78.7506C153.762 94.5336 150.682 110.317 147.602 126.1C146.579 126.62 145.615 127.249 144.728 127.976C145.55 128.122 146.345 128.396 147.082 128.789C146.876 129.841 146.669 130.893 146.463 131.945C145.195 132.552 141.106 134.678 136.66 138.647L146.749 76.8969ZM134.776 150.186C137.14 146.423 140.61 142.866 144.883 140.079C146.454 139.04 148.109 138.132 149.829 137.365C153.704 135.62 157.865 134.599 162.108 134.352C166.351 134.106 159.896 130.662 157.933 129.245C157.933 129.245 168.344 127.986 178.148 135.665C178.148 135.665 172.259 140.729 170.013 151.976C170.013 151.976 186.607 132.454 205.129 123.052C223.651 113.65 247.552 111.708 268.839 115.37C268.839 115.37 261.791 107.713 241.999 107.844C241.999 107.844 244.645 93.2027 253.993 85.3406C253.993 85.3406 253.657 88.258 254.134 90.9691C254.134 90.9691 270.922 78.9525 289.26 88.1711C289.26 88.1711 285.606 89.8414 284.185 91.4672C284.185 91.4672 296.851 96.3913 302.458 107.323C307.545 117.267 301.753 133.687 300.648 136.604C300.648 136.604 295.497 129.652 287.688 125.802C296.038 136.518 300.203 147.362 306.612 155.68C313.022 163.998 324.235 169.507 323.248 185.503C322.294 200.838 314.398 217.636 308.488 222.094C301.515 223.08 287.004 226.801 280.226 242.389C273.448 257.978 283.003 271.33 283.003 271.33C283.003 271.33 264.87 277.967 241.663 284.67C216.838 284.518 190.931 281.088 184.25 280.755C193.295 285.732 209.518 289.799 216.339 291.372C209.692 292.955 203.001 294.375 196.516 295.525C189.77 295.851 163.732 290.514 144.666 278.77C138.191 274.779 131.414 270.246 124.914 264.996L128.638 245.934C138.82 255.803 152.171 259.967 152.171 259.967C152.171 259.967 136.283 247.529 129.983 239.081C130.536 236.243 131.089 233.406 131.642 230.568C138.169 228.626 143.929 223.03 144.568 211.792C144.568 211.792 150.837 215.653 156.627 216.358C158.201 220.265 158.309 224.144 158.515 228.513C152.529 228.491 146.163 227.038 145.773 226.952C146.26 227.386 154.274 234.325 159.177 235.974C159.946 241.006 161.66 246.786 165.9 253.824C176.658 271.623 198.619 278.551 218.498 272.826C218.498 272.826 183.827 273.139 171.594 247.589C161.877 227.265 169.089 227.992 162.105 211.79C156.118 197.876 156.053 180.341 157.051 173.497C157.051 173.497 151.032 177.455 150.43 189.178C150.43 189.178 145.329 186.791 141.375 180.699C140.036 178.625 138.988 176.377 138.263 174.018C137.221 170.742 136.647 166.849 136.896 162.272C136.896 162.272 134.748 162.956 132.363 164.94C132.2 165.081 132.026 165.233 131.864 165.385C130.287 160.933 131.49 155.37 134.775 150.186H134.776ZM138.9 193.413C139.157 192.094 139.413 190.774 139.67 189.455C142.384 192.893 146.047 196.135 150.949 198.24C150.949 198.24 151.762 203.673 153.367 206.699C153.367 206.699 147.38 204.811 143.042 201.656C143.039 201.653 141.749 197.925 138.896 193.413H138.9ZM130.582 175.856C130.582 175.856 131.352 174.489 132.318 173.577C132.318 173.577 133.175 178.569 136.266 184.26C135.98 185.72 135.695 187.181 135.409 188.641C133.644 186.531 131.63 184.641 129.412 183.013L130.582 175.856ZM94.5127 224.912C85.1638 199.299 103.188 180.631 118.281 184.699C120.228 185.231 122.095 186.019 123.834 187.042C125.408 187.962 126.88 189.045 128.226 190.274C130.409 192.241 132.277 194.53 133.767 197.062C135.105 199.308 136.117 201.732 136.771 204.263C138.301 210.232 137.531 216.442 133.463 221.247C132.051 222.918 130.279 224.249 128.28 225.14C126.306 226.04 124.245 226.474 122.283 226.637C120.65 226.76 119.009 226.727 117.382 226.539C114.519 226.214 112.533 225.542 112.533 225.542C113.434 227.049 114.973 228.364 116.926 229.359C115.585 237.554 114.244 245.749 112.903 253.945C105.213 245.794 98.6413 236.24 94.5095 224.907L94.5127 224.912ZM121.126 261.828C120.537 264.847 119.948 267.865 119.359 270.883C119.359 270.891 119.359 270.898 119.359 270.906C117.84 270.908 116.386 270.289 115.335 269.192C115.418 268.682 115.501 268.173 115.584 267.663C116.101 264.503 116.618 261.343 117.135 258.184C118.618 249.106 120.102 240.029 121.585 230.952C123.388 231.332 125.233 231.471 127.072 231.366L121.126 261.828ZM120.183 332.005C101.92 329.652 95.1412 315.554 103.73 301.368C112.32 287.183 131.883 279.093 131.883 279.093C131.883 279.093 133.499 280.157 135.962 281.698C113.729 295.57 118.306 312.638 127.59 317.702C122.959 307.53 127.362 293.421 145.172 287.196C148.339 288.996 151.56 290.699 154.237 291.838C148.219 308.474 174.099 306.924 209.602 300.015C245.128 293.106 287.961 277.1 287.961 277.1C302.06 289.311 328.89 284.973 345.7 267.079C371.598 238.741 361.654 213.169 361.654 213.169C376.837 211.272 407.929 216.238 400.337 237.929C392.745 259.619 336.629 294.05 263.153 313.575C189.677 333.1 138.431 334.352 120.179 331.999L120.183 332.005ZM387.821 403.721C383.795 412.652 356.335 436.732 336.084 446.218C336.518 445.719 350.55 429.744 352.256 409.724C352.256 409.724 329.168 449.664 294.865 459.361C275.073 464.245 229.655 470.955 198.888 454.817C193.282 427.25 179.909 345.643 180.051 338.688C188.283 338.884 234.882 330.114 279.466 317.151C319.731 318.615 337.93 356.864 338.507 358.078C332.965 329.592 315.418 315.177 304.477 309.316C323.53 302.853 340.618 295.717 352.074 288.353L387.821 403.721Z" fill="black"/>
<path fill-rule="evenodd" clip-rule="evenodd" d="M232.208 233.54C234.019 237.085 242.424 249.795 254.56 243.473C265.61 237.721 262.498 222.954 260.556 220.232C267.551 213.042 261.218 204.757 261.218 204.757C260.502 218.314 249.506 220.667 244.56 217.684C244.56 217.684 237.815 232.704 222.502 225.319C222.497 225.319 223.998 232.704 232.208 233.54ZM245.774 225.861C245.774 225.861 251.201 227.314 255.644 224.429C260.718 239.624 243.442 245.209 237.857 232.314C242.869 229.949 245.775 225.861 245.775 225.861H245.774Z" fill="black"/>
<path fill-rule="evenodd" clip-rule="evenodd" d="M237.772 211.643C241.028 210.874 244.827 207.967 247.478 201.861C250.13 195.755 247.749 191.288 240.732 192.275C233.714 193.261 223.15 198.869 223.358 203.217C223.566 207.565 231.297 213.157 237.772 211.643ZM228.64 202.762C230.983 201.33 233.564 199.801 238.672 198.293C243.779 196.784 244.864 200.029 241.405 203.89C237.946 207.75 233.987 209.485 228.76 205.343C226.872 203.846 228.087 203.099 228.64 202.762Z" fill="black"/>
<path fill-rule="evenodd" clip-rule="evenodd" d="M254.712 182.883C266.64 186.95 271.9 195.463 286.345 187.698C295.835 182.59 299.218 169.262 287.637 156.714C276.056 144.167 255.62 140.676 245.406 145.067C235.192 149.458 232.327 159.165 232.327 159.165C228.186 175.563 242.782 178.816 254.712 182.883ZM254.755 147.908C267.16 146.823 278.71 155.684 280.836 157.485C292.484 167.386 292.375 178.757 283.699 183.761C275.023 188.766 261.859 180.757 252.955 177.233C244.69 173.958 238.9 173.752 236.958 166.257C235.017 158.763 242.359 148.993 254.755 147.908Z" fill="black"/>
<path fill-rule="evenodd" clip-rule="evenodd" d="M192.028 228.192C201.17 228.757 208.079 223.091 210.747 215.873C213.414 208.654 212.266 203.423 215.713 193.869C219.16 184.315 222.014 169.479 205.888 165.597C189.241 161.595 175.186 179.445 173.559 198.337C172.117 216.589 180.279 227.466 192.028 228.192ZM178.645 194.873C180.49 176.871 198.849 164.302 209.207 172.37C218.902 179.918 211.245 190.47 209.207 200.501C207.168 210.533 205.486 223.211 192.397 223.612C179.308 224.014 177.648 204.594 178.651 194.877L178.645 194.873Z" fill="black"/>
<path fill-rule="evenodd" clip-rule="evenodd" d="M193.427 205.928C193.856 206.145 194.302 206.326 194.761 206.471C192.722 203.456 192.373 199.291 194.209 195.617C196.615 190.802 201.94 188.471 206.604 189.974C205.693 188.622 204.449 187.528 202.992 186.796C198.047 184.335 191.898 186.612 189.263 191.897C186.628 197.183 188.481 203.456 193.427 205.928Z" fill="#040002"/>
<path fill-rule="evenodd" clip-rule="evenodd" d="M262.195 162.31C266.293 162.647 269.677 165.097 271.203 168.395C271.315 167.928 271.387 167.453 271.42 166.974C271.865 161.465 267.451 156.617 261.573 156.151C255.695 155.685 250.554 159.762 250.099 165.268C249.973 166.891 250.268 168.52 250.955 169.996C252.077 165.228 256.826 161.876 262.195 162.31Z" fill="#040002"/>
<path fill-rule="evenodd" clip-rule="evenodd" d="M109.976 354.915C109.976 354.915 106.503 367.43 96.3763 375.65C106.507 383.871 109.976 396.386 109.976 396.386C109.976 396.386 113.458 383.871 123.586 375.65C113.458 367.43 109.976 354.915 109.976 354.915Z" fill="black"/>
<path fill-rule="evenodd" clip-rule="evenodd" d="M79.567 262.551C79.567 262.551 76.8537 272.34 68.9309 278.771C76.8537 285.202 79.567 294.99 79.567 294.99C79.567 294.99 82.29 285.202 90.2128 278.771C82.29 272.34 79.567 262.551 79.567 262.551Z" fill="#040002"/>
<path fill-rule="evenodd" clip-rule="evenodd" d="M79.567 262.551C79.567 262.551 76.8537 272.34 68.9309 278.771C76.8537 285.202 79.567 294.99 79.567 294.99C79.567 294.99 82.29 285.202 90.2128 278.771C82.29 272.34 79.567 262.551 79.567 262.551Z" fill="black"/>
<path fill-rule="evenodd" clip-rule="evenodd" d="M215.908 69.2443C215.908 69.2443 219.119 57.7064 228.467 50.1243C219.124 42.5423 215.914 31 215.914 31C215.914 31 212.708 42.5456 203.365 50.1243C212.708 57.7064 215.908 69.2443 215.908 69.2443Z" fill="#040002"/>
<path fill-rule="evenodd" clip-rule="evenodd" d="M215.908 69.2443C215.908 69.2443 219.119 57.7064 228.467 50.1243C219.124 42.5423 215.914 31 215.914 31C215.914 31 212.708 42.5456 203.365 50.1243C212.708 57.7064 215.908 69.2443 215.908 69.2443Z" fill="black"/>
<path fill-rule="evenodd" clip-rule="evenodd" d="M349.755 147.289C349.755 147.289 352.662 136.841 361.118 129.978C352.662 123.114 349.755 112.666 349.755 112.666C349.755 112.666 346.858 123.114 338.403 129.978C346.858 136.841 349.755 147.289 349.755 147.289Z" fill="#040002"/>
<path fill-rule="evenodd" clip-rule="evenodd" d="M349.755 147.289C349.755 147.289 352.662 136.841 361.118 129.978C352.662 123.114 349.755 112.666 349.755 112.666C349.755 112.666 346.858 123.114 338.403 129.978C346.858 136.841 349.755 147.289 349.755 147.289Z" fill="black"/>
<path fill-rule="evenodd" clip-rule="evenodd" d="M435.047 227.572C435.047 227.572 433.001 234.953 427.03 239.795C432.999 244.642 435.047 252.019 435.047 252.019C435.047 252.019 437.098 244.639 443.069 239.795C437.098 234.949 435.047 227.572 435.047 227.572Z" fill="#040002"/>
<path fill-rule="evenodd" clip-rule="evenodd" d="M435.047 227.572C435.047 227.572 433.001 234.953 427.03 239.795C432.999 244.642 435.047 252.019 435.047 252.019C435.047 252.019 437.098 244.639 443.069 239.795C437.098 234.949 435.047 227.572 435.047 227.572Z" fill="black"/>
<path fill-rule="evenodd" clip-rule="evenodd" d="M414.835 266.262C414.835 266.262 411.634 277.804 402.292 285.387C411.634 292.969 414.835 304.512 414.835 304.512C414.835 304.512 418.044 292.969 427.388 285.387C418.044 277.804 414.835 266.262 414.835 266.262Z" fill="black"/>
<path fill-rule="evenodd" clip-rule="evenodd" d="M182.746 92.9498C182.746 92.9498 185.469 83.5369 193.391 77.3527C185.469 71.1664 182.746 61.7546 182.746 61.7546C182.746 61.7546 180.032 71.1675 172.109 77.3527C180.031 83.5369 182.746 92.9498 182.746 92.9498Z" fill="black"/>
</svg>
